<?xml version="1.0" encoding="utf-8"?>
<!-- Generator: Adobe Illustrator 23.0.1, SVG Export Plug-In . SVG Version: 6.00 Build 0)  -->
<svg version="1.1" id="Layer_1" xmlns="http://www.w3.org/2000/svg" xmlns:xlink="http://www.w3.org/1999/xlink" x="0px" y="0px"
	 viewBox="0 0 512 512" style="enable-background:new 0 0 512 512;" xml:space="preserve">
<style type="text/css">
	.st0{fill:#CE6C21;}
	.st1{fill:#DCC5A1;}
	.st2{fill:#EDD9B4;}
	.st3{fill-rule:evenodd;clip-rule:evenodd;fill:#BC9F82;}
	.st4{fill-rule:evenodd;clip-rule:evenodd;fill:#FFFFFF;}
	.st5{fill:#FFFFFF;}
	.st6{fill-rule:evenodd;clip-rule:evenodd;}
	.st7{fill:#342214;}
	.st8{fill:#BE1E2D;}
	.st9{fill:#AC1927;}
</style>
<g>
	<path class="st0" d="M102.6,354.5c8.3-7.3,26.6-21.8,82.2-48.1l40,55.5l31.2-29.7l31.2,29.7l40-55.5c55.5,26.2,73.9,40.8,82.2,48.1
		c2.5,2.2,4.8,5.4,7,9.4c16.1-27.4,25.3-59.4,25.3-93.5C441.5,167.9,358.4,84.8,256,84.8S70.4,167.9,70.4,270.5
		c0,34.1,9.2,66.1,25.3,93.5C97.8,359.9,100.1,356.7,102.6,354.5z"/>
	<path class="st1" d="M216.1,225.5v90.9c10.9,12.9,25.4,19.6,39.8,19.8V188.6C236.1,188.6,216.1,200.9,216.1,225.5z"/>
	<path class="st2" d="M256,188.6v147.4c14.5,0.1,28.8-6.4,39.8-19.8v-90.8C295.8,200.9,275.8,188.6,256,188.6z"/>
	<path class="st3" d="M295.8,219.2V280c-15.1,11-29.6,17.1-39.8,17.1s-24.8-6.2-39.8-17.1v-60.8
		C216.1,170.1,295.8,170.1,295.8,219.2"/>
	<path class="st4" d="M213.1,216.2c11.2,8.8,74.5,8.3,85.7,0C289.1,262.5,226,263.8,213.1,216.2"/>
	<g>
		<path class="st1" d="M256,56c-75.4,0-92.9,51.4-92.3,98.6c-3.4-2.8-7.1-4-10.3-2.8c-7.1,2.3-9.5,14-5.5,26.2
			c4,12.1,12.9,20,20,17.8c0.2-0.1,0.3-0.2,0.4-0.2c3.7,18.1,8.7,31.5,10.9,34.8c9.6,14.2,55.2,51.7,76.8,51.7l0,0V56L256,56z"/>
		<path class="st2" d="M358.2,151.7c-3.2-1-6.7,0-10,2.6c0.6-47.1-17-98.3-92.3-98.3v226.1c21.6,0,67.2-37.6,76.8-51.7
			c2.2-3.4,7.2-16.7,10.9-34.7c0.1,0,0.1,0.1,0.2,0.1c7.1,2.3,15.9-5.7,20-17.8C367.7,165.8,365.3,154.1,358.2,151.7z"/>
	</g>
	<polygon class="st5" points="295.8,292.1 295.8,292.1 256,332.2 287.2,361.9 327.2,306.4 327.2,306.4 	"/>
	<polygon class="st5" points="216.1,292.1 216.1,292.1 256,332.2 224.7,361.9 184.7,306.4 184.7,306.4 	"/>
	<path class="st6" d="M256,56c-93.4,0-92.5,50.1-92.4,96.6c0.1,37.1,11.7,72,15.6,77.7c9.6,14.2,55.2,51.7,76.8,51.7
		s67.2-37.6,76.8-51.7c3.9-5.7,15.5-40.6,15.6-77.7C348.4,106.1,349.4,56,256,56z M340.1,181.2c-3.7,33.6-5.1,39.5-15.4,52.6
		c-10.2,13.2-35.1,27-48.9,33.6c-13.2,6.3-5.8-10.8-19.8-12.3c-13.8,1.6-6.5,18.6-19.8,12.3c-13.9-6.6-38.8-20.5-48.9-33.6
		c-10.2-13.2-11.7-19-15.4-52.6c-3.7-33.6,0.7-94.4,22.6-92.9c21.9,1.5,35.9,5.2,61.4,5.2c25.6,0,39.5-3.6,61.4-5.2
		C339.3,86.8,343.7,147.4,340.1,181.2z"/>
	<g>
		<path class="st7" d="M220.9,158.1c4.7,0,8.6,4.4,8.6,9.7c0,5.4-3.9,9.7-8.6,9.7s-8.6-4.4-8.6-9.7
			C212.3,162.4,216.2,158.1,220.9,158.1"/>
		<path class="st7" d="M290.6,158.1c4.7,0,8.6,4.4,8.6,9.7c0,5.4-3.9,9.7-8.6,9.7c-4.7,0-8.6-4.4-8.6-9.7
			C282,162.4,285.9,158.1,290.6,158.1"/>
		<path class="st5" d="M238.1,219.7c3,6.7,9.8,11.4,17.7,11.4s14.6-4.7,17.7-11.4H238.1z"/>
	</g>
	<path class="st8" d="M256,456L256,456L256,456z"/>
	<path class="st8" d="M359.8,410.5c0,0,0.6,4.7,1.6,12.6c22.4-15.5,41.1-35.7,54.9-59.2c-2.2-4-4.5-7.2-7-9.4
		c-8.3-7.3-26.6-21.8-82.2-48.1l-40,55.5L256,332.2l-31.2,29.7l-40-55.5c-55.6,26.2-73.9,40.8-82.2,48.1c-2.5,2.2-4.8,5.4-7,9.4
		c13.8,23.6,32.5,43.8,54.9,59.2c1-7.8,1.6-12.6,1.6-12.6s0,5.1,0,13.8c29.6,20,65.4,31.7,103.7,31.7l0,0
		c38.5,0,74.2-11.7,103.8-31.7C359.8,415.7,359.8,410.5,359.8,410.5z"/>
	<path class="st9" d="M152.1,410.5c0,0-0.6,4.7-1.6,12.6c0.5,0.3,1.1,0.8,1.6,1.1C152.1,415.7,152.1,410.5,152.1,410.5z"/>
	<path class="st9" d="M359.8,424.3c0.6-0.3,1.1-0.8,1.6-1.1c-1-7.8-1.6-12.6-1.6-12.6S359.8,415.7,359.8,424.3z"/>
</g>
</svg>
